<?xml version="1.0" encoding="UTF-8" standalone="no" ?>
<!DOCTYPE svg PUBLIC "-//W3C//DTD SVG 1.1//EN" "http://www.w3.org/Graphics/SVG/1.1/DTD/svg11.dtd">
<svg xmlns="http://www.w3.org/2000/svg" xmlns:xlink="http://www.w3.org/1999/xlink" version="1.1" width="1080" height="1080" viewBox="0 0 1080 1080" xml:space="preserve">
<desc>Created with Fabric.js 5.2.4</desc>
<defs>
</defs>
<g transform="matrix(1 0 0 1 540 540)" id="1b8d9a58-f4b6-412e-b40d-3c6e3f41eedc"  >
<rect style="stroke: none; stroke-width: 1; stroke-dasharray: none; stroke-linecap: butt; stroke-dashoffset: 0; stroke-linejoin: miter; stroke-miterlimit: 4; fill: rgb(255,255,255); fill-rule: nonzero; opacity: 1; visibility: hidden;" vector-effect="non-scaling-stroke"  x="-540" y="-540" rx="0" ry="0" width="1080" height="1080" />
</g>
<g transform="matrix(1 0 0 1 540 540)" id="a6d55c59-2879-4661-bf7b-28587539dc60"  >
</g>
<g transform="matrix(1.75 0 0 1.75 540 540)"  >
<g style="" vector-effect="non-scaling-stroke"   >
		<g transform="matrix(0.1 0 0 0.1 0 0)"  >
<path style="stroke: none; stroke-width: 1; stroke-dasharray: none; stroke-linecap: butt; stroke-dashoffset: 0; stroke-linejoin: miter; stroke-miterlimit: 4; fill: rgb(0,0,0); fill-rule: nonzero; opacity: 1;" vector-effect="non-scaling-stroke"  transform=" translate(-2560, -2560)" d="M 2560 0 C 3973.848959566831 0 5120 1146.1510404331684 5120 2559.9999999999995 C 5120 3973.8489595668307 3973.8489595668316 5120 2560.000000000001 5120 C 1146.1510404331689 5120 0 3973.848959566831 0 2560 C 0 1146.1510404331689 1146.1510404331689 0 2560 0 z" stroke-linecap="round" />
</g>
		<g transform="matrix(0.1 0 0 0.1 -1.42 58.45)"  >
<path style="stroke: none; stroke-width: 1; stroke-dasharray: none; stroke-linecap: butt; stroke-dashoffset: 0; stroke-linejoin: miter; stroke-miterlimit: 4; fill: rgb(255,255,255); fill-rule: nonzero; opacity: 1;" vector-effect="non-scaling-stroke"  transform=" translate(-2545.79, -3144.5)" d="M 2460 1449 C 1716 1449 1136 1918 1136 2501 C 1136 3051 1669 3402 2495 3385 L 2520 3384 L 2611 3381 L 2588 3441 L 2591 3447 C 2597.588263747785 3462.4349961356647 2603.59252416227 3478.1127872179313 2609 3494 L 2611 3500 L 2614 3510 L 2618 3524 L 2621 3533 L 2625 3543 L 2628 3554 L 2632 3570 L 2637 3587 L 2640 3598 L 2645 3616 L 2650 3635 L 2654 3654 L 2659 3674 L 2663 3688 L 2668 3710 L 2673 3732 L 2680 3762 L 2683 3778 L 2688 3802 L 2693 3827 L 2699 3853 L 2706 3890 L 2712 3920 L 2720 3962 L 2724 3983 L 2731 4016 L 2737 4050 L 2745 4096 L 2754 4144 L 2762 4194 L 2771 4245 L 2780 4297 L 2789 4351 L 2798 4407 L 2805 4450 L 2816 4523 L 2821 4553 L 2833 4630 L 2842 4693 L 2850 4741 L 2859 4807 L 2864 4840 C 3413 4767 3901 4501 4257 4112 L 4268 4100 L 4217 3910 L 4082 3405 L 3998 3091 L 3924 2815 L 3878 2647 L 3849 2541 L 3832 2477 L 3816 2421 L 3810 2397 L 3806 2384 L 3804 2377 L 3802 2371 C 3724 2120 3573 1898 3367 1737 C 3125 1548 2818 1449 2460 1449 z M 1806 4118 C 1741 4100 1673 4138 1654 4203 L 1653 4206 L 1541 4622 C 1611.0309413787702 4656.652379599335 1682.7917171442564 4687.693087256034 1756.0000000000005 4715 L 1773 4722 L 1894 4271 L 1895 4268 C 1911 4202 1872 4135 1806 4118 z M 2503 3813 C 2437 3795 2369 3833 2350 3898 L 2349 3901 L 2179 4531 L 2179 4534 C 2165.322196777868 4598.90438128112 2204.7214171219916 4663.190913241405 2268.7629494978623 4680.463525707925 C 2332.8044818737335 4697.736138174447 2399.186234147492 4661.979744057159 2420 4599 L 2421 4596 L 2591 3966 L 2591 3963 L 2594 3949 L 2595 3944 L 2591 3923 L 2585 3894 L 2581 3876 C 2564.9303645129417 3845.0356861004234 2536.6520994787793 3822.195548957446 2503 3813 z M 1318 3164 L 1310 3183 L 1309 3187 L 1139 3817 L 1138 3820 C 1122.2491591275273 3885.6268502709527 1161.437909079576 3951.9066035671135 1226.531601383989 3969.73309191604 C 1291.625293688402 3987.5595802649664 1359.1158378053726 3950.4949033528524 1379 3886 L 1380 3883 L 1534 3311 C 1454 3269 1381 3219 1318 3164 z M 913 2439 C 847 2422 779 2460 760 2524 L 759 2527 L 589 3157 L 589 3160 C 573.2491591275272 3225.6268502709527 612.437909079576 3291.9066035671135 677.531601383989 3309.73309191604 C 742.6252936884022 3327.5595802649664 810.1158378053726 3290.4949033528524 830 3226 L 831 3223 L 1001 2593 L 1001 2590 C 1017 2524 978 2457 913 2439 z M 4724 2296 C 4659 2279 4591 2317 4572 2381 L 4571 2384 L 4401 3014 L 4400 3017 C 4381.774603255584 3083.826454729526 4421.173545270474 3152.7746032555838 4488 3171 C 4554.826454729526 3189.2253967444162 4623.774603255584 3149.826454729526 4642 3083 L 4642 3080 L 4813 2450 L 4813 2446 C 4829 2381 4790 2314 4724 2296 z M 542 1455 C 399.55068648715263 1714.3978839379977 308.8697525143512 1999.006957605443 275 2293.000000000002 C 291.40467189871947 2311.5780892760454 313.00015710558773 2324.8140318221904 337 2331 C 402 2348 470 2310 489 2246 L 490 2243 L 660 1613 L 661 1610 C 677 1544 638 1477 572 1459 C 562.1951912461938 1456.47561871589 552.123692627239 1455.132752233363 541.9999999999999 1455 z M 4294 1459 C 4228 1442 4161 1480 4141 1544 L 4141 1547 L 3971 2177 L 3970 2180 C 3954.249159127527 2245.6268502709527 3993.437909079576 2311.9066035671135 4058.5316013839893 2329.73309191604 C 4123.625293688402 2347.5595802649664 4191.115837805372 2310.4949033528524 4211 2246 L 4212 2243 L 4382 1613 L 4383 1610 C 4399 1544 4359 1477 4294 1459 z" stroke-linecap="round" />
</g>
		<g transform="matrix(0.1 0 0 0.1 6 -53)"  >
<path style="stroke: none; stroke-width: 1; stroke-dasharray: none; stroke-linecap: butt; stroke-dashoffset: 0; stroke-linejoin: miter; stroke-miterlimit: 4; fill: rgb(0,0,0); fill-rule: nonzero; opacity: 1;" vector-effect="non-scaling-stroke"  transform=" translate(-2620, -2030)" d="M 2620 1870 C 2708.365559972927 1870 2780 1941.634440027073 2780 2030 C 2780 2118.365559972927 2708.365559972927 2190 2620 2190 C 2531.634440027073 2190 2460 2118.365559972927 2460 2030 C 2460 1941.634440027073 2531.634440027073 1870 2620 1870 z" stroke-linecap="round" />
</g>
		<g transform="matrix(0.1 0 0 0.1 -1.72 -155.79)"  >
<path style="stroke: none; stroke-width: 1; stroke-dasharray: none; stroke-linecap: butt; stroke-dashoffset: 0; stroke-linejoin: miter; stroke-miterlimit: 4; fill: rgb(255,255,255); fill-rule: nonzero; opacity: 1;" vector-effect="non-scaling-stroke"  transform=" translate(-2542.76, -1002.1)" d="M 1282 860 C 1217 843 1149 881 1130 945 L 1129 948 L 959 1578 L 958 1581 C 942.2491591275272 1646.6268502709527 981.437909079576 1712.9066035671135 1046.531601383989 1730.73309191604 C 1111.625293688402 1748.5595802649664 1179.1158378053726 1711.4949033528524 1199 1647 L 1200 1644 L 1370 1014 L 1371 1010 C 1387 945 1348 878 1282 860 z M 3467 979 C 3401 962 3333 1000 3314 1064 L 3313 1067 L 3199 1491 C 3272.96664329036 1527.3677020204195 3343.574628772747 1570.2009823130522 3410 1618.9999999999998 L 3421 1628 L 3555 1133 L 3555 1130 C 3571 1064 3532 997 3467 979 z M 2355 269 C 2275.1279709187907 276.17462375895377 2195.686042570468 287.52347066585736 2117 303.00000000000045 L 2100 306 L 1942 893 L 1941 896 C 1927.3221967778682 960.9043812811199 1966.7214171219914 1025.1909132414044 2030.7629494978623 1042.4635257079256 C 2094.8044818737335 1059.7361381744468 2161.186234147492 1023.9797440571596 2182 961 L 2183 958 L 2353 328 L 2354 325 C 2358.5998685020413 306.65389265394214 2358.9419265958372 287.49863940137715 2355 269 z M 3919 704 L 3886 828 L 3885 831 C 3871.322196777868 895.9043812811199 3910.7214171219916 960.1909132414045 3974.7629494978623 977.4635257079257 C 4038.8044818737335 994.7361381744468 4105.1862341474925 958.9797440571596 4126 896 L 4127 893 L 4131 880 C 4068.4430064425314 821.3903974541917 4002.6747807928145 766.3053353617893 3934 715 L 3919 704 z M 2930 290 L 2870 513 L 2869 516 C 2855.322196777868 580.9043812811199 2894.7214171219916 645.1909132414045 2958.7629494978623 662.4635257079257 C 3022.8044818737335 679.7361381744468 3089.186234147492 643.9797440571596 3110 581 L 3111 578 L 3174 343 C 3099.5593178181884 322.52770757478197 3024.12931884563 305.83965470474635 2947.9999999999977 292.9999999999991 L 2930 290 z" stroke-linecap="round" />
</g>
</g>
</g>
</svg>