<svg id="Layer_1" data-name="Layer 1" xmlns="http://www.w3.org/2000/svg" viewBox="0 0 841.89 595.28"><defs><style>.cls-1{fill:#fff;}</style></defs><path class="cls-1" d="M282.89,175.34a78.29,78.29,0,0,1,82.21,2.85A279.09,279.09,0,0,1,391,167.61a102.65,102.65,0,0,0-135.55-2.83l5.52,2C267.52,169.17,275.1,171.94,282.89,175.34Z"/><path class="cls-1" d="M717.75,432.19,638.1,386.63a266.69,266.69,0,0,0,15.25-89c0-147.72-120.17-267.89-267.88-267.89s-267.9,120.17-267.9,267.89,120.18,267.89,267.9,267.89c85.26,0,161.29-40.09,210.39-102.36,6.57.25,13,.37,19.33.37a555.29,555.29,0,0,0,98.87-8.75,12.22,12.22,0,0,0,3.69-22.6Zm-147.6,4.55c-39.28-3.87-80-13.71-112-35-42.93-28.45-50.84-83.84-52.21-98.7a102.06,102.06,0,0,0,9.16-15.85l171.33,98,88.21,50.45C648.29,438.45,610,440.66,570.15,436.74ZM142,297.64C142,163.4,251.22,54.19,385.47,54.19S628.92,163.4,628.92,297.64a242.33,242.33,0,0,1-12.43,76.63L422.86,263.53a101.84,101.84,0,0,0-5.29-57.47c-4.68,2.07-10,4-16,6.19-2.3.83-4.56,1.67-6.8,2.51A78.72,78.72,0,1,1,250,211.29c-9.11-3.3-16.69-6.29-22.25-10a101.66,101.66,0,0,0-3.31,76.81c.21,129,103.94,237.83,226.71,237.83a407.62,407.62,0,0,0,46.69-2.4,241.94,241.94,0,0,1-112.4,27.61C251.22,541.09,142,431.87,142,297.64ZM555.73,471.41c-31.32,17.66-72.22,20-104.55,20-95.72,0-178.47-74.61-197.94-170.67a102.5,102.5,0,0,0,131.3,4.59c5.55,27.37,20.35,70.47,60.07,96.8,35.45,23.49,79.25,34.47,121.17,38.87C562.54,464.6,559.17,468,555.73,471.41Z"/><path class="cls-1" d="M449.25,148.84A12.22,12.22,0,0,0,424.91,151a43.62,43.62,0,0,1-2.7,16.09,35.18,35.18,0,0,1-8.62,13.43c-2.37,2.26-12.34,5.87-20.35,8.76-20.17,7.29-49.69,18-66.14,40.88-16.45-22.91-46-33.59-66.15-40.88-8-2.89-18-6.5-20.33-8.76A35,35,0,0,1,232,167.08a43.71,43.71,0,0,1-2.7-16.08,12.22,12.22,0,0,0-24.35-2.16c-.11,1.18-2.41,29.12,18.81,49.36a31.22,31.22,0,0,0,4,3c5.56,3.76,13.14,6.75,22.25,10l2.61,1c34.05,12.31,62.24,25.13,62.24,57.35a12.22,12.22,0,1,0,24.43,0c0-30.05,24.52-43.22,55.45-54.84,2.24-.84,4.5-1.68,6.8-2.51,6-2.17,11.33-4.12,16-6.19,5.26-2.32,9.66-4.78,12.89-7.86C451.67,178,449.36,150,449.25,148.84Z"/></svg>